PathFileType	4	(X/Y/Z)	/Users/niels/Desktop/University/Third Semester/Perception and Action/Exam/Gymnastics Motion Tracking/Code for Gym Tracking/Analyzed Data/Webcam_Backflip/id4_4_pure_Sports2D/id4_4_pure_Sports2D_px_person00.trc
DataRate	CameraRate	NumFrames	NumMarkers	Units	OrigDataRate	OrigDataStartFrame	OrigNumFrames
29.8125	29.8125	12	22	m	29.8125	120	160
Frame#	Time	Hip			RHip			RKnee			RAnkle			RBigToe			RSmallToe			RHeel			LHip			LKnee			LAnkle			LBigToe			LSmallToe			LHeel			Neck			Head			Nose			RShoulder			RElbow			RWrist			LShoulder			LElbow			LWrist		
		X1	Y1	Z1	X2	Y2	Z2	X3	Y3	Z3	X4	Y4	Z4	X5	Y5	Z5	X6	Y6	Z6	X7	Y7	Z7	X8	Y8	Z8	X9	Y9	Z9	X10	Y10	Z10	X11	Y11	Z11	X12	Y12	Z12	X13	Y13	Z13	X14	Y14	Z14	X15	Y15	Z15	X16	Y16	Z16	X17	Y17	Z17	X18	Y18	Z18	X19	Y19	Z19	X20	Y20	Z20	X21	Y21	Z21	X22	Y22	Z22
120	4.025157232704402	0.9526204670561622	-0.6103404656162348	0.0	0.9397950057808971	-0.6118414894648738	0.0	0.9806255371289878	-0.7118443180734049	0.0	0.9353502407873164	-0.8120727249713067	0.0	0.9730633543064449	-0.8328451107393791	0.0	0.9642359735020032	-0.8347496438819207	0.0	0.922617416900105	-0.8188818679935115	0.0	0.9637991184317596	-0.6116740954979545	0.0	1.0009974835871631	-0.7106181443449203	0.0	0.9570623175609323	-0.8007350078437733	0.0	0.9906606975854769	-0.8266227717361372	0.0	0.9855766565048358	-0.8215942313496101	0.0	0.9474542323236196	-0.8099230930340591	0.0	0.9595697339249533	-0.45584914326923553	0.0	0.9786207457313543	-0.3902951272715192	0.0	0.9882819348335158	-0.4248151091120228	0.0	0.9382771510438572	-0.4763448199531745	0.0	0.9172616862997357	-0.5528365669540726	0.0	0.9643381504677022	-0.5894283837471356	0.0	0.9639564177758506	-0.4774440717697421	0.0	0.9455651441890577	-0.5438697392510498	0.0	0.9725089532311861	-0.5947108799492632	0.0
121	4.058700209643606	0.9539790651280771	-0.5960196642501571	0.0	0.9416140797724012	-0.5972817725219709	0.0	0.9822087605649491	-0.6966644938448627	0.0	0.9358805665098916	-0.797056364439351	0.0	0.9715386379315983	-0.819905666936695	0.0	0.9611278317575058	-0.8215556237349557	0.0	0.9228889416038845	-0.8067070054799236	0.0	0.9635128773362286	-0.5966129813630751	0.0	0.9978679463145684	-0.6965415759317467	0.0	0.9569929328368812	-0.7877147415046837	0.0	0.9896410165408998	-0.8139958555463556	0.0	0.9851537350841045	-0.809479192422012	0.0	0.9479267119771336	-0.7991952864869132	0.0	0.960553686670272	-0.4414712672282075	0.0	0.9814513368255011	-0.37497609139427657	0.0	0.9896594338643043	-0.4100886060662462	0.0	0.9400497685430915	-0.46176910886388856	0.0	0.9141992030118757	-0.5373864528639285	0.0	0.9513901604009748	-0.5885898669193514	0.0	0.963907649193541	-0.46206113771331664	0.0	0.944120386538181	-0.5282358259445098	0.0	0.9666687549200933	-0.5828281842575579	0.0
122	4.092243186582809	0.95541909729812	-0.580667862747474	0.0	0.9440528024930425	-0.5818643759800187	0.0	0.9825456921222758	-0.6810510816937917	0.0	0.9363197736236659	-0.7813861191396287	0.0	0.9697028688199331	-0.8062706570733341	0.0	0.9577828155907621	-0.8079326227432364	0.0	0.9231177117643158	-0.7941084230863571	0.0	0.9632497077075989	-0.5807213186069555	0.0	0.9945610252097262	-0.681273906657811	0.0	0.9569751375791249	-0.7733367470793121	0.0	0.9878583832067654	-0.800271792014381	0.0	0.9841312911270338	-0.7961865247698557	0.0	0.9483541786140856	-0.7871284493187561	0.0	0.9611226485805103	-0.4260022269862196	0.0	0.9837735099247339	-0.358427582063458	0.0	0.9905587285298416	-0.3939811096902253	0.0	0.942059935782623	-0.4458457394717444	0.0	0.9131250441806589	-0.5198723990573099	0.0	0.9397522188625209	-0.5815318948905783	0.0	0.963260602787928	-0.4456387690754966	0.0	0.9433538402990563	-0.5113784116577352	0.0	0.9612918611464984	-0.5690066584378234	0.0
123	4.125786163522012	0.9566883193534199	-0.5655145134067883	0.0	0.9467466896857989	-0.5667480238883114	0.0	0.9817928301253508	-0.666250327677133	0.0	0.9367280781739148	-0.766714509945955	0.0	0.9682448901163332	-0.7932665892875554	0.0	0.9552568819866077	-0.7951037837536088	0.0	0.9234574130871037	-0.782198852722386	0.0	0.9629966223031731	-0.5653057610955736	0.0	0.9905309298942532	-0.666493230889839	0.0	0.9565005245257222	-0.7596011199020896	0.0	0.98587844734253	-0.7870612589792166	0.0	0.9828075052073193	-0.7833386412281663	0.0	0.9480794519997363	-0.7754680393754432	0.0	0.9614391204713298	-0.4106467450114848	0.0	0.9852491159075712	-0.34210039293774797	0.0	0.9910405172164803	-0.3779150641157809	0.0	0.9442652026498679	-0.4299661261594838	0.0	0.9133826910379589	-0.5021935254738592	0.0	0.930649537349005	-0.5704554604162532	0.0	0.9624109415945776	-0.4295978054084961	0.0	0.943166524257117	-0.494822294597041	0.0	0.9574729892491962	-0.554615224391433	0.0
124	4.159329140461216	0.9575957679497555	-0.5517130530875148	0.0	0.9492869509070794	-0.5530330039959711	0.0	0.980165376310964	-0.6532894546146717	0.0	0.9372154054228695	-0.7543626643737443	0.0	0.9678031845928281	-0.7819940878594656	0.0	0.9543526438891116	-0.7841163577969971	0.0	0.9240834401444431	-0.7720195548466194	0.0	0.9626646834292898	-0.5514802941636849	0.0	0.9857982057872879	-0.6534113094995111	0.0	0.9552931154342115	-0.7479784034797378	0.0	0.9843484629619315	-0.7756418441347898	0.0	0.981594019095522	-0.772230868355605	0.0	0.9465977471582819	-0.7655301646851326	0.0	0.9616444347868975	-0.39648988914199584	0.0	0.98571536826352	-0.3272067419068987	0.0	0.9911820035329866	-0.36315293940532517	0.0	0.9466360599436575	-0.4153486078241147	0.0	0.9143534940215405	-0.48581663161094524	0.0	0.9246033747070288	-0.5576040964558224	0.0	0.9616375089412851	-0.41512718306237884	0.0	0.9433532440463743	-0.4797867256954549	0.0	0.9561139617944893	-0.5407118385562621	0.0
125	4.192872117400419	0.9580341075408833	-0.5401916709460672	0.0	0.9513847105343003	-0.5416281815178025	0.0	0.9778666423363259	-0.6429577817811745	0.0	0.9378861968434103	-0.7451193008535307	0.0	0.9686654957289148	-0.7732675185052358	0.0	0.95533508415154	-0.7757454136115925	0.0	0.9251151571174105	-0.764356967031918	0.0	0.9620440057034796	-0.5400862930944371	0.0	0.980698245296482	-0.6428367909955175	0.0	0.9532321095633439	-0.739388294900194	0.0	0.9835083089470052	-0.7669396607506029	0.0	0.98063114004523	-0.7637832033744079	0.0	0.943628931265378	-0.7581649337099571	0.0	0.9618053432827306	-0.3845171370913085	0.0	0.9852945933826323	-0.3147125206061706	0.0	0.9910368982651668	-0.3507557757487888	0.0	0.9491341214846023	-0.40299501899744916	0.0	0.9155787224592784	-0.4717695241280663	0.0	0.921551663119308	-0.5449103219312662	0.0	0.9609909503970571	-0.4031591125174621	0.0	0.9436838762851343	-0.4671283841784955	0.0	0.9576606717800543	-0.5279228884743661	0.0
126	4.226415094339622	0.9579484360951366	-0.5316372481987913	0.0	0.9529077287347727	-0.5332117099513796	0.0	0.9750754054831536	-0.6358004347546596	0.0	0.938706266217194	-0.7393420732254723	0.0	0.9705745921174029	-0.7676037705574653	0.0	0.9578157241978442	-0.7704494720869907	0.0	0.9265329158921549	-0.7596740336598801	0.0	0.9609207873834158	-0.5317191115391456	0.0	0.9755968291469005	-0.6352580665988292	0.0	0.950423800499997	-0.7342373013430578	0.0	0.9831439072605477	-0.7614729499109291	0.0	0.9797524997005678	-0.758507945661451	0.0	0.939447472930517	-0.7537923895292148	0.0	0.9619292391202573	-0.3755916294133673	0.0	0.9843090020619066	-0.3053830855090744	0.0	0.9906640172220017	-0.3415830474016139	0.0	0.9516703294776786	-0.39371816620138633	0.0	0.9168295020389898	-0.4607657500548019	0.0	0.9210972473985647	-0.5338874538472782	0.0	0.9603658888574277	-0.3943728312179782	0.0	0.9439428822324312	-0.4574168028313347	0.0	0.9617482732082213	-0.516593296059893	0.0
127	4.259958071278826	0.9573636576780765	-0.5265733815092876	0.0	0.9538564713871462	-0.528258437179528	0.0	0.9719396044927393	-0.6321188650305934	0.0	0.9394577303076627	-0.7370984405424346	0.0	0.9728150751802287	-0.7651838886007108	0.0	0.9608924476329515	-0.7683608489292384	0.0	0.9281469064646604	-0.7581387850255774	0.0	0.9592460280392467	-0.5267744538314069	0.0	0.9707799279758329	-0.6309406069168947	0.0	0.9472385426522798	-0.7325301690904604	0.0	0.9828615500442707	-0.7593169012348581	0.0	0.9786895155754167	-0.7564904914043888	0.0	0.9349669261305051	-0.7525037910382375	0.0	0.9620075662378152	-0.3703964914410887	0.0	0.983121869821923	-0.29975417741549193	0.0	0.9901652475813223	-0.33624304952943346	0.0	0.9540856755355976	-0.38813374455259897	0.0	0.9180959634223513	-0.45334526141417775	0.0	0.9227231106196961	-0.5256459761625554	0.0	0.9596801261308522	-0.3892298408051582	0.0	0.9440024761079476	-0.4510652333497498	0.0	0.9672788923367377	-0.5070649553282178	0.0
128	4.293501048218029	0.9564216116361614	-0.5253417509505547	0.0	0.9543290805530195	-0.5270202652949704	0.0	0.9685869084514972	-0.6319680564731522	0.0	0.9398645058943971	-0.7382311164489154	0.0	0.9745783430492856	-0.7658898643497708	0.0	0.9635647822116542	-0.7693311446885814	0.0	0.9296492202660234	-0.7596941464751689	0.0	0.957166453731641	-0.5254421381401622	0.0	0.9664466831876252	-0.6300010415578875	0.0	0.9441580763534916	-0.7340566420833491	0.0	0.9823409500548793	-0.7602575733974654	0.0	0.9772674500573378	-0.7575212637090754	0.0	0.9312352283421499	-0.7542091417899265	0.0	0.9620576303019168	-0.3693296270471053	0.0	0.9820208846758514	-0.2981105768354908	0.0	0.989673759489353	-0.33503091820209613	0.0	0.9561992932924596	-0.3865956738330695	0.0	0.9194923897264742	-0.4499706623996595	0.0	0.9259694203781688	-0.5209955120341389	0.0	0.9589695608814891	-0.3879862323619198	0.0	0.9439298260878763	-0.4484042016530233	0.0	0.9730918736137951	-0.49979566301233935	0.0
129	4.327044025157232	0.9553348118349917	-0.527977981106697	0.0	0.9544537962302568	-0.5294761925574314	0.0	0.9651317113556412	-0.635166754584613	0.0	0.9397585217675533	-0.7424185152032691	0.0	0.9753403003999354	-0.7694451392752413	0.0	0.9651662279433058	-0.7730363498958459	0.0	0.9307334423234161	-0.764093593589241	0.0	0.9549396566999092	-0.5277089675434965	0.0	0.9626885770531843	-0.6324393812508767	0.0	0.9415446967670117	-0.7385390576528426	0.0	0.9813928221784585	-0.7640371525743946	0.0	0.9754491422751245	-0.7613291713934924	0.0	0.9287992684240839	-0.7587253030525473	0.0	0.9621439780008306	-0.37239737979354237	0.0	0.9811990979811436	-0.3005267112249099	0.0	0.989319599346708	-0.3379307323661598	0.0	0.9578577944421381	-0.3891524142375051	0.0	0.9211545437905209	-0.4509980863252597	0.0	0.9305270042007986	-0.5205382488608559	0.0	0.9583563140310482	-0.39066436436405955	0.0	0.944035062227311	-0.44963894681873323	0.0	0.978553343287433	-0.4952690661585486	0.0
130	4.360587002096436	0.9542918766183163	-0.5341603373092981	0.0	0.9543176122693681	-0.5353388662796876	0.0	0.9616761556061447	-0.6413572453118767	0.0	0.9391481512521264	-0.749235415686261	0.0	0.9749770053744871	-0.7755086888147893	0.0	0.9654704709424005	-0.77904882157398	0.0	0.9312229367818957	-0.7709031145203684	0.0	0.9528703436416653	-0.5333964164603988	0.0	0.9594794011871224	-0.6381353263339625	0.0	0.9395465102055495	-0.7456651080656509	0.0	0.979937989120844	-0.7704152245838968	0.0	0.9733034062564294	-0.767675683050577	0.0	0.9275961164726012	-0.7657395561874696	0.0	0.9623629008209784	-0.37920196455829946	0.0	0.980785134789661	-0.30685552234168195	0.0	0.9891998429155351	-0.34462661314171367	0.0	0.9589364754958448	-0.3955487877368706	0.0	0.9232029322604853	-0.45654222651284315	0.0	0.9361898544031517	-0.5246457775390297	0.0	0.9580090718298087	-0.39702329883035853	0.0	0.9447863057895429	-0.45476775643108064	0.0	0.9836031765303684	-0.4938852295741505	0.0
131	4.394129979035639	0.9533924985886769	-0.5432996936135968	0.0	0.9539487600275682	-0.5441063295945855	0.0	0.9583233259397296	-0.6500560923019555	0.0	0.9381872514549423	-0.7581772897382161	0.0	0.9736843890748453	-0.7836359695957642	0.0	0.9645659571362052	-0.7868496944127804	0.0	0.9311096423376519	-0.7795377794989797	0.0	0.9512673002247497	-0.542133044800238	0.0	0.9567355003851382	-0.6467738945911697	0.0	0.93816157605149	-0.7550304220850994	0.0	0.9780446255892657	-0.7790097713789065	0.0	0.9709927183749166	-0.7762224096796373	0.0	0.9272663831343999	-0.7747433726116998	0.0	0.962785705462624	-0.3890218901831611	0.0	0.9808390443726647	-0.31661464470813866	0.0	0.9893511474313318	-0.35446272526381306	0.0	0.9593591000954897	-0.4052266411247606	0.0	0.9257661551142166	-0.4663533944779781	0.0	0.9427241342807668	-0.5333022021921484	0.0	0.9580998458266986	-0.40653786923350815	0.0	0.9466030364401543	-0.46351551744292085	0.0	0.988484029610669	-0.495911261407557	0.0
